<?xml version="1.0" encoding="UTF-8"?> <svg xmlns="http://www.w3.org/2000/svg" width="537" height="786" viewBox="0 0 537 786" fill="none"> <path d="M0 714.215C78.9247 759.856 170.548 786 268.312 786C366.075 786 457.722 759.856 536.646 714.192V71.8082C457.698 26.1437 366.075 0 268.312 0C170.548 0 78.9247 26.1437 0 71.7851V714.215Z" fill="#B3B3B3"></path> <path d="M268.312 17.8774C176.573 17.8774 90.4182 41.6823 15.6645 83.4334V702.568C90.4182 744.319 176.573 768.124 268.312 768.124C360.051 768.124 446.228 744.296 521.028 702.545V83.4566C446.228 41.6823 360.051 17.8774 268.312 17.8774ZM509.813 693.375C438.048 732.463 355.764 754.716 268.288 754.716C180.813 754.716 98.5517 732.486 26.8103 693.398V92.6034C98.5517 53.5153 180.813 31.285 268.288 31.285C355.764 31.285 438.048 53.5152 509.813 92.6265V693.375Z" fill="#666666"></path> <path d="M40.2511 461.972V505.622H496.397V126.55L40.2511 461.972Z" fill="#E20613"></path> <path d="M496.397 102.906C427.784 68.4959 350.319 49.1371 268.289 49.1371C186.306 49.1371 108.841 68.4959 40.2277 102.883V461.971L496.397 126.549V102.906Z" fill="#1D70B7"></path> <path d="M40.2511 487.721V680.314C108.285 716.391 185.889 736.839 268.312 736.839C350.713 736.839 428.34 716.368 496.42 680.267V487.721H40.2511Z" fill="#1D1D1B"></path> <path d="M162.736 516.481V666.257H139.957V605.078C135.161 606.884 129.692 608.273 122.416 608.273C107.146 608.273 99.6609 601.882 96.9034 598.71C89.6041 590.489 88.9321 577.985 88.9321 570.25V516.504H111.71V565.225C111.71 570.042 111.71 578.911 116.02 583.681C119.218 587.085 123.76 587.78 127.19 587.78C131.523 587.78 135.624 587.085 139.957 584.584V516.504H162.736V516.481Z" fill="white"></path> <path d="M183.246 547.512C183.246 541.098 184.614 530.168 195.319 521.971C200.556 517.872 208.759 514.213 220.6 514.213C229.73 514.213 239.717 516.274 246.808 521.531C250.909 524.472 259.321 532.229 259.321 547.512V560.943C259.321 569.372 258.881 573.424 252.485 580.95C249.983 583.683 246.576 586.392 243.355 588.221C249.959 591.625 253.157 595.516 254.756 598.225C258.857 605.079 259.321 611.887 259.321 618.742V632.566C259.321 641.458 258.185 651.022 249.287 659.219C240.876 666.953 230.402 668.528 220.137 668.528C211.679 668.528 201.228 667.416 193.025 659.891C191.426 658.524 183.223 650.535 183.223 636.896V626.893H206.002V631.2C206.002 634.604 207.346 639.629 209.64 642.106C212.374 645.047 217.843 646.205 221.481 646.205C227.181 646.205 230.611 644.63 232.418 642.801C236.519 638.934 236.519 634.164 236.519 629.139V619.83C236.519 615.523 236.056 606.191 230.379 601.652C228.78 600.263 225.142 598.202 218.306 598.202H211.447V577.731H217.588C223.52 577.731 228.988 575.694 232.163 572.243C236.265 567.728 236.496 561.082 236.496 558.141V552.722C236.496 549.295 236.496 543.83 231.931 539.94C229.429 537.902 225.536 536.513 220.762 536.513C216.429 536.513 212.791 538.111 210.288 540.612C206.419 544.247 205.955 548.832 205.955 552.236V556.983H183.177V547.512H183.246Z" fill="white"></path> <path d="M335.391 552.745C335.391 549.55 334.464 545.219 332.425 542.255C331.289 540.658 327.883 536.559 320.584 536.559C314.675 536.559 311.014 539.083 308.719 541.792C305.105 546.354 304.873 552.074 304.873 557.516V626.406C304.873 631.663 304.873 636.433 307.839 640.531C309.415 642.801 313.053 646.205 319.448 646.205C324.453 646.205 329.482 644.399 332.216 640.74C333.328 639.165 335.414 635.53 335.414 627.795V626.892H358.192V628.675C358.192 644.399 352.724 653.499 348.622 657.829C343.849 663.086 334.487 668.505 318.776 668.505C303.761 668.505 295.094 662.391 290.089 656.463C281.886 646.9 282.118 635.947 282.118 627.795V554.783C282.118 544.27 283.485 532.414 293.727 523.545C300.795 517.154 311.268 514.19 319.703 514.19C329.273 514.19 340.442 517.849 347.255 524.448C352.909 530.145 357.497 539.731 357.497 550.916V557.029H335.414V552.745H335.391Z" fill="white"></path> <path d="M435.384 666.257L429.475 636.941H397.104L391.195 666.257H368.416L403.267 516.481H423.311L458.162 666.257H435.384ZM412.814 557.746L400.997 616.633H425.142L412.814 557.746Z" fill="white"></path> <path d="M144.426 312.959L534.392 100.244L253.034 312.959H144.426Z" fill="white"></path> <path d="M390.958 274.959L0.992215 487.721L282.35 274.959H390.958Z" fill="white"></path> </svg> 