<?xml version="1.0" encoding="UTF-8"?>
<svg id="_Слой_1" data-name="Слой 1" xmlns="http://www.w3.org/2000/svg" viewBox="0 0 2432.44 349.13">
  <defs>
    <style>
      .cls-1 {
        fill: #ebe6d6;
      }

      .cls-2 {
        fill: #d20a11;
      }

      .cls-3 {
        fill: #163e6c;
      }
    </style>
  </defs>
  <polygon class="cls-3" points="0 0 41.24 104.44 295.73 104.44 288.75 122.35 110.02 122.35 150.26 226.79 248.02 226.79 241.03 244.69 157.5 244.69 198.84 348.65 198.84 349.13 572.93 349.13 613.63 244.69 373.52 244.69 428.14 104.44 535.49 104.44 510.94 167.43 643.41 167.43 708.66 0 708.66 0 0 0"/>
  <polygon class="cls-2" points="861.89 0 903.13 104.44 1157.62 104.44 1150.64 122.35 971.91 122.35 1012.15 226.79 1109.91 226.79 1102.92 244.69 1019.39 244.69 1060.73 348.65 1060.73 349.13 1434.81 349.13 1475.52 244.69 1235.41 244.69 1290.03 104.44 1397.38 104.44 1372.83 167.43 1505.3 167.43 1570.55 0 1570.55 0 861.89 0"/>
  <polygon class="cls-1" points="1723.78 0 1765.02 104.44 2019.51 104.44 2012.53 122.35 1833.8 122.35 1874.04 226.79 1971.8 226.79 1964.81 244.69 1881.28 244.69 1922.62 348.65 1922.62 349.13 2296.7 349.13 2337.41 244.69 2097.3 244.69 2151.92 104.44 2259.27 104.44 2234.72 167.43 2367.19 167.43 2432.44 0 2432.44 0 1723.78 0"/>
</svg>