<?xml version="1.0" encoding="UTF-8"?> <svg xmlns="http://www.w3.org/2000/svg" width="1160" height="132" viewBox="0 0 1160 132" fill="none"> <path d="M75.1448 90.9957L96.4424 41.6507H143.028L132.379 66.3128H189.846L218.15 0.763672H16.9824L38.9992 41.6507H67.28L30.508 61.2045L0 131.881H161.658L179.313 90.9957H75.1448ZM928.65 0.763672L903.454 59.09H856.869L882.064 0.763672H824.598L767.966 131.881H825.435L837.664 103.597L894.063 80.842L872.023 131.881H929.513L986.116 0.763672H928.65ZM344.033 0.763672L267.078 59.7599L292.552 0.763672H235.086L178.454 131.881H235.921L312.643 73.4287L287.402 131.881H344.868L392.892 20.6943L407.949 41.6507H444.164L361.549 131.862H427.738L510.354 41.6507H529.053L490.1 131.862H547.566L595.869 20.0453L611.39 41.6507H647.605L564.966 131.862H631.156L670.48 88.9629L701.011 114.609L693.564 131.881H751.03L807.662 0.763672H344.033ZM719.13 72.6143H685.444L713.794 41.6507H732.496L719.13 72.6143ZM1142.34 41.6507L1160 0.763672H998.458L980.803 41.6507H1058.76L1021.98 61.2045L1009.13 90.9957H989.016L971.363 131.881H1071.26L1088.94 90.9957H1066.62L1087.92 41.6507H1142.34Z" fill="#E3D6C2"></path> </svg> 